<?xml version="1.0" standalone="no"?>
<!DOCTYPE svg PUBLIC "-//W3C//DTD SVG 20010904//EN"
 "http://www.w3.org/TR/2001/REC-SVG-20010904/DTD/svg10.dtd">
<svg version="1.0" xmlns="http://www.w3.org/2000/svg"
 width="123.000000pt" height="123.000000pt" viewBox="0 0 123.000000 123.000000"
 preserveAspectRatio="xMidYMid meet">
<metadata>
Created by potrace 1.11, written by Peter Selinger 2001-2013
</metadata>
<g transform="translate(0.000000,123.000000) scale(0.100000,-0.100000)"
fill="#000000" stroke="none">
<path d="M0 615 l0 -615 615 0 615 0 0 615 0 615 -615 0 -615 0 0 -615z m683
298 c3 -10 53 -144 112 -298 59 -154 110 -288 112 -298 5 -16 -1 -18 -63 -15
l-69 3 -24 68 -24 68 -114 -3 -115 -3 -25 -67 -25 -68 -64 0 c-35 0 -64 3 -64
7 0 8 220 583 231 606 14 25 124 25 132 0z m-342 -88 c40 -54 41 -56 24 -75
-10 -11 -23 -20 -29 -19 -6 0 -30 26 -53 57 l-42 57 20 18 c12 9 25 17 30 17
4 0 27 -25 50 -55z m624 41 c23 -16 15 -36 -38 -100 -31 -36 -35 -38 -55 -25
-12 8 -22 18 -22 24 0 19 31 56 41 49 6 -3 2 -12 -10 -21 -23 -16 -28 -34 -8
-29 6 1 9 1 4 -1 -4 -3 -4 -9 -1 -14 3 -6 11 -5 20 2 10 8 11 15 4 24 -8 9 -8
15 0 20 5 3 10 -1 10 -10 0 -9 5 -13 11 -10 7 5 3 15 -11 30 -22 23 -22 24 -4
49 22 29 33 31 59 12z m-755 -185 c77 -26 85 -31 82 -52 -1 -13 -6 -27 -10
-31 -7 -7 -177 44 -189 56 -8 8 10 56 21 56 7 0 50 -13 96 -29z m924 3 c4 -15
6 -28 4 -29 -13 -11 -184 -63 -189 -57 -4 4 -10 18 -14 32 -6 24 -2 26 77 52
106 34 114 34 122 2z m-870 -190 c17 -44 -2 -59 -120 -92 -7 -2 -16 11 -22 27
-11 30 -10 30 41 49 29 11 59 22 67 25 24 9 28 8 34 -9z m781 -7 c61 -22 77
-44 56 -76 -8 -12 -15 -12 -53 2 -23 9 -55 21 -70 26 -25 9 -26 12 -17 41 13
35 8 35 84 7z"/>
<path d="M578 663 l-35 -98 65 -3 c35 -2 67 -1 69 2 3 2 -10 48 -29 101 l-35
97 -35 -99z"/>
<path d="M286 861 c-4 -5 2 -12 11 -14 14 -4 13 -5 -4 -6 -13 0 -23 4 -23 11
0 6 -3 8 -7 5 -3 -4 2 -16 12 -27 14 -16 20 -17 27 -8 5 9 8 10 8 1 0 -6 -5
-15 -10 -18 -18 -11 8 -33 33 -28 20 4 20 3 4 -7 -20 -13 -14 -32 8 -24 21 9
-2 84 -26 84 -6 0 -8 4 -5 9 3 5 -1 14 -8 20 -9 8 -16 8 -20 2z m54 -65 c0 -2
-7 -7 -16 -10 -8 -3 -12 -2 -9 4 6 10 25 14 25 6z"/>
<path d="M934 844 c4 -11 2 -15 -8 -11 -10 4 -13 1 -9 -9 6 -17 8 -17 32 -2
16 10 17 14 6 25 -18 18 -28 16 -21 -3z"/>
<path d="M110 685 c-17 -21 -3 -34 40 -37 19 -2 38 -7 41 -12 4 -4 7 4 7 18 0
14 -4 26 -9 26 -5 0 -9 -6 -9 -14 0 -9 -7 -12 -20 -9 -11 3 -20 10 -20 15 0 5
5 6 10 3 6 -3 10 -2 10 3 0 6 -7 13 -16 16 -21 8 -20 8 -34 -9z m20 -15 c0 -5
-2 -10 -4 -10 -3 0 -8 5 -11 10 -3 6 -1 10 4 10 6 0 11 -4 11 -10z"/>
<path d="M208 664 c-5 -4 1 -44 6 -44 1 0 16 -4 34 -9 25 -8 32 -7 29 2 -2 7
-13 11 -23 9 -18 -2 -18 -2 -1 8 9 6 15 16 12 21 -4 5 -11 7 -16 3 -5 -3 -16
-1 -23 5 -7 6 -15 8 -18 5z"/>
<path d="M1110 692 c0 -7 -5 -10 -12 -6 -7 4 -8 3 -4 -4 3 -6 -3 -16 -15 -22
-11 -7 -18 -14 -16 -17 3 -3 12 -1 19 3 7 5 19 9 26 10 22 4 25 11 13 31 -6
11 -11 13 -11 5z"/>
<path d="M1060 681 c0 -5 -15 -14 -32 -20 -26 -9 -30 -14 -18 -21 12 -8 12
-10 1 -10 -8 0 -12 -2 -9 -5 3 -3 16 -1 29 4 13 5 17 10 9 11 -9 0 -5 5 9 13
26 13 40 37 22 37 -6 0 -11 -4 -11 -9z"/>
<path d="M970 651 c-8 -6 -18 -7 -22 -5 -21 13 -5 -6 17 -20 24 -16 25 -16 23
9 -1 14 -3 25 -3 25 0 0 -7 -4 -15 -9z"/>
<path d="M207 482 c-14 -3 -16 -7 -6 -18 9 -11 4 -13 -32 -8 -37 6 -42 4 -31
-8 6 -8 9 -18 6 -21 -4 -3 3 -5 14 -4 17 1 19 4 9 16 -10 12 -9 13 8 3 16 -8
24 -7 39 6 11 9 16 11 12 5 -11 -19 9 -16 25 4 8 10 9 14 2 10 -6 -4 -15 -1
-20 6 -4 7 -16 11 -26 9z"/>
<path d="M980 488 c0 -4 8 -8 18 -9 11 -1 9 -4 -8 -9 -17 -5 -19 -8 -7 -9 9
-1 17 -5 17 -10 0 -5 7 -12 16 -15 13 -5 15 -2 11 14 -3 11 -1 20 4 20 5 0 9
-5 9 -11 0 -5 5 -7 10 -4 6 3 10 -1 10 -10 0 -9 -4 -13 -10 -10 -5 3 -10 2
-10 -3 0 -5 9 -12 21 -15 18 -5 20 -2 14 21 -6 25 -5 26 8 8 11 -15 14 -16 14
-3 0 10 -21 22 -59 34 -32 11 -58 16 -58 11z"/>
</g>
</svg>
