<svg id="Layer_1" data-name="Layer 1" xmlns="http://www.w3.org/2000/svg" width="284.32" height="328.77" viewBox="0 0 284.32 328.77"><title>Stamp Icon</title><path d="M206.15,64.74A64.74,64.74,0,1,1,141.41,0,64.7,64.7,0,0,1,206.15,64.74ZM145.46,24.28a4,4,0,0,0-4-4A44.58,44.58,0,0,0,96.9,64.74a4,4,0,0,0,8.09,0,36.43,36.43,0,0,1,36.42-36.42A4,4,0,0,0,145.46,24.28Z"/><g id="Layer_3" data-name="Layer 3"><path d="M167,137.28c6.62,5.85,10.05,108,10.05,108,0.45,4.6-5.59,8.42-13.41,8.42h-42.9c-7.82,0-13.85-3.81-13.41-8.42,0,0,4.8-102.91,10.06-108C133.18,141.57,153.71,140.79,167,137.28Z"/></g><g id="Layer_2" data-name="Layer 2"><path d="M284.32,312.36a16.41,16.41,0,0,1-16.4,16.4H16.4A16.41,16.41,0,0,1,0,312.36V257.69a16.41,16.41,0,0,1,16.4-16.4h73a33.15,33.15,0,0,0,30.93,21.87H164A33.15,33.15,0,0,0,195,241.29h73a16.41,16.41,0,0,1,16.4,16.4v54.68Z"/></g></svg>